<svg width="23" height="22" viewBox="0 0 23 22" fill="none" xmlns="http://www.w3.org/2000/svg">
<path d="M11.376 21.9121C9.67997 21.9121 8.13597 21.6401 6.74397 21.0961C5.35197 20.5521 4.15197 19.7841 3.14397 18.7921C2.13597 17.8001 1.35997 16.6401 0.81597 15.3121C0.27197 13.9681 -3.01898e-05 12.5041 -3.01898e-05 10.9201C-3.01898e-05 9.33611 0.27197 7.88011 0.81597 6.55211C1.35997 5.22411 2.13597 4.07211 3.14397 3.09611C4.16797 2.12011 5.38397 1.36011 6.79197 0.816113C8.19997 0.272112 9.75997 0.000112057 11.472 0.000112057C13.12 0.000112057 14.632 0.264112 16.008 0.792112C17.384 1.30411 18.568 2.03211 19.56 2.97611C20.568 3.90411 21.344 5.00811 21.888 6.28811C22.448 7.56811 22.728 8.97611 22.728 10.5121C22.728 11.8881 22.544 13.0801 22.176 14.0881C21.808 15.0801 21.28 15.8401 20.592 16.3681C19.92 16.8961 19.096 17.1601 18.12 17.1601C17.128 17.1601 16.336 16.8641 15.744 16.2721C15.168 15.6801 14.88 14.8241 14.88 13.7041V12.3361L14.976 10.9681L14.76 7.84811V5.11211H17.424V13.2721C17.424 13.8801 17.544 14.3121 17.784 14.5681C18.04 14.8081 18.336 14.9281 18.672 14.9281C19.104 14.9281 19.472 14.7601 19.776 14.4241C20.08 14.0881 20.304 13.5921 20.448 12.9361C20.608 12.2801 20.688 11.4881 20.688 10.5601C20.688 9.28011 20.464 8.11211 20.016 7.05611C19.584 6.00011 18.952 5.09611 18.12 4.34411C17.304 3.57611 16.328 2.99211 15.192 2.59211C14.072 2.17611 12.832 1.96811 11.472 1.96811C10.08 1.96811 8.81597 2.19211 7.67997 2.64011C6.54397 3.07211 5.56797 3.68811 4.75197 4.48811C3.93597 5.28811 3.30397 6.24011 2.85597 7.34411C2.42397 8.43211 2.20797 9.62411 2.20797 10.9201C2.20797 12.2481 2.42397 13.4641 2.85597 14.5681C3.28797 15.6721 3.90397 16.6161 4.70397 17.4001C5.51997 18.2001 6.48797 18.8161 7.60797 19.2481C8.72797 19.6961 9.98397 19.9201 11.376 19.9201C12.112 19.9201 12.888 19.8321 13.704 19.6561C14.52 19.4961 15.296 19.2321 16.032 18.8641L16.68 20.7841C15.944 21.1521 15.096 21.4321 14.136 21.6241C13.176 21.8161 12.256 21.9121 11.376 21.9121ZM10.752 17.1601C9.64797 17.1601 8.66397 16.9041 7.79997 16.3921C6.93597 15.8641 6.24797 15.1441 5.73597 14.2321C5.23997 13.3041 4.99197 12.2401 4.99197 11.0401C4.99197 9.85611 5.23997 8.80811 5.73597 7.89611C6.23197 6.96811 6.91197 6.24811 7.77597 5.73611C8.65597 5.22411 9.64797 4.96811 10.752 4.96811C11.824 4.96811 12.76 5.20811 13.56 5.68811C14.36 6.15211 14.984 6.83211 15.432 7.72811C15.88 8.62411 16.104 9.72811 16.104 11.0401C16.104 12.3521 15.888 13.4641 15.456 14.3761C15.024 15.2881 14.408 15.9841 13.608 16.4641C12.808 16.9281 11.856 17.1601 10.752 17.1601ZM11.256 14.8321C11.944 14.8321 12.552 14.6881 13.08 14.4001C13.608 14.0961 14.024 13.6561 14.328 13.0801C14.648 12.5041 14.808 11.8241 14.808 11.0401C14.808 10.2401 14.648 9.56811 14.328 9.02411C14.024 8.46411 13.608 8.04011 13.08 7.75211C12.552 7.44811 11.944 7.29611 11.256 7.29611C10.552 7.29611 9.92797 7.44811 9.38397 7.75211C8.85597 8.05611 8.43997 8.48811 8.13597 9.04811C7.84797 9.60811 7.70397 10.2721 7.70397 11.0401C7.70397 11.8241 7.84797 12.4961 8.13597 13.0561C8.43997 13.6161 8.85597 14.0561 9.38397 14.3761C9.92797 14.6801 10.552 14.8321 11.256 14.8321Z" fill="black"/>
</svg>
